<svg width="14" height="12" viewBox="0 0 14 12" fill="none" xmlns="http://www.w3.org/2000/svg">
<path d="M14 1.78418C13.8086 2.07129 13.5921 2.33902 13.3506 2.5874C13.109 2.83577 12.847 3.0625 12.5644 3.26757C12.569 3.33138 12.5724 3.39404 12.5747 3.45556C12.577 3.51709 12.5781 3.57975 12.5781 3.64355C12.5781 4.21777 12.5166 4.78515 12.3935 5.3457C12.2705 5.90624 12.0928 6.44856 11.8603 6.97265C11.5231 7.73372 11.1016 8.4139 10.5957 9.0132C10.0898 9.6125 9.5168 10.1195 8.87646 10.5342C8.23616 10.9489 7.53775 11.2656 6.78125 11.4844C6.02474 11.7031 5.23177 11.8125 4.40234 11.8125C3.61848 11.8125 2.854 11.7043 2.10888 11.4878C1.36377 11.2713 0.6608 10.9489 0 10.5205C0.22331 10.5478 0.45117 10.5615 0.68359 10.5615C1.33529 10.5615 1.96533 10.4567 2.57373 10.2471C3.18212 10.0374 3.74153 9.7321 4.25195 9.331C3.94661 9.3265 3.65266 9.2752 3.37011 9.1772C3.08756 9.0793 2.82893 8.9425 2.59423 8.7671C2.35953 8.5916 2.15445 8.3831 1.979 8.1416C1.80354 7.90006 1.66796 7.63346 1.57226 7.34179C1.6634 7.35546 1.75341 7.36686 1.84228 7.37597C1.93115 7.38509 2.02115 7.38964 2.1123 7.38964C2.36751 7.38964 2.61815 7.35547 2.86425 7.28711C2.52701 7.21875 2.21826 7.09798 1.93798 6.9248C1.65771 6.75162 1.41503 6.54085 1.20996 6.29248C1.00488 6.04411 0.84537 5.76383 0.73144 5.45166C0.61751 5.13948 0.56054 4.8125 0.56054 4.4707V4.43652C0.96158 4.66439 1.3968 4.78515 1.8662 4.79883C1.66568 4.66211 1.48681 4.50602 1.32959 4.33056C1.17236 4.15511 1.03906 3.96484 0.92968 3.75976C0.82031 3.55469 0.736 3.33822 0.67675 3.11035C0.61751 2.88249 0.58789 2.64779 0.58789 2.40625C0.58789 2.15104 0.61979 1.90153 0.68359 1.65772C0.74739 1.4139 0.84537 1.18262 0.97753 0.96387C1.34212 1.41504 1.74772 1.8195 2.19433 2.17725C2.64094 2.53499 3.11604 2.84147 3.61962 3.09668C4.1232 3.35189 4.65071 3.55355 5.20214 3.70166C5.75357 3.84977 6.31868 3.9375 6.89745 3.96484C6.87011 3.86003 6.85074 3.75179 6.83934 3.64014C6.82795 3.52848 6.82225 3.41797 6.82225 3.30859C6.82225 2.91211 6.89745 2.53955 7.04784 2.19092C7.19823 1.84228 7.40331 1.53809 7.66307 1.27832C7.92284 1.01855 8.22704 0.81348 8.57567 0.66309C8.92431 0.5127 9.2969 0.4375 9.6933 0.4375C10.0944 0.4375 10.4761 0.51611 10.8384 0.67334C11.2007 0.83057 11.5185 1.05501 11.792 1.34668C12.1155 1.28288 12.4289 1.19287 12.7319 1.07666C13.035 0.96045 13.3278 0.81803 13.6103 0.64941C13.5055 0.9821 13.3449 1.28516 13.1284 1.55859C12.9119 1.83203 12.6533 2.05762 12.3525 2.23535C12.9267 2.16699 13.4759 2.0166 14 1.78418Z" fill="white"/>
</svg>
