<?xml version="1.0" encoding="UTF-8"?>
<svg xmlns="http://www.w3.org/2000/svg" xmlns:xlink="http://www.w3.org/1999/xlink" width="37.5pt" height="37.499999pt" viewBox="0 0 37.5 37.499999" version="1.2">
<defs>
<clipPath id="clip1">
  <path d="M 1.3125 1.3125 L 36.5625 1.3125 L 36.5625 36.5625 L 1.3125 36.5625 Z M 1.3125 1.3125 "/>
</clipPath>
<clipPath id="clip2">
  <path d="M 18 1.3125 L 36.5625 1.3125 L 36.5625 36.5625 L 18 36.5625 Z M 18 1.3125 "/>
</clipPath>
<clipPath id="clip3">
  <path d="M 1.3125 1.3125 L 36.5625 1.3125 L 36.5625 36.5625 L 1.3125 36.5625 Z M 1.3125 1.3125 "/>
</clipPath>
<clipPath id="clip4">
  <path d="M 18 1.3125 L 36.5625 1.3125 L 36.5625 36.5625 L 18 36.5625 Z M 18 1.3125 "/>
</clipPath>
<clipPath id="clip5">
  <path d="M 4 1.3125 L 36 1.3125 L 36 23 L 4 23 Z M 4 1.3125 "/>
</clipPath>
<clipPath id="clip6">
  <path d="M 18 20 L 27 20 L 27 36.5625 L 18 36.5625 Z M 18 20 "/>
</clipPath>
</defs>
<g id="surface1">
<g clip-path="url(#clip1)" clip-rule="nonzero">
<path style=" stroke:none;fill-rule:nonzero;fill:rgb(29.798889%,68.629456%,31.369019%);fill-opacity:1;" d="M 36.941406 19.128906 C 36.941406 28.964844 28.964844 36.941406 19.128906 36.941406 C 9.289062 36.941406 1.3125 28.964844 1.3125 19.128906 C 1.3125 9.289062 9.289062 1.3125 19.128906 1.3125 C 28.964844 1.3125 36.941406 9.289062 36.941406 19.128906 Z M 36.941406 19.128906 "/>
</g>
<g clip-path="url(#clip2)" clip-rule="nonzero">
<path style=" stroke:none;fill-rule:nonzero;fill:rgb(100%,75.689697%,2.749634%);fill-opacity:1;" d="M 19.128906 1.3125 L 19.128906 19.128906 L 26.253906 22.691406 L 18.375 36.941406 C 18.660156 36.941406 18.84375 36.941406 19.128906 36.941406 C 28.972656 36.941406 36.941406 28.972656 36.941406 19.128906 C 36.941406 9.28125 28.972656 1.3125 19.128906 1.3125 Z M 19.128906 1.3125 "/>
</g>
<g clip-path="url(#clip3)" clip-rule="nonzero">
<path style=" stroke:none;fill-rule:nonzero;fill:rgb(29.798889%,68.629456%,31.369019%);fill-opacity:1;" d="M 36.941406 19.128906 C 36.941406 28.964844 28.964844 36.941406 19.128906 36.941406 C 9.289062 36.941406 1.3125 28.964844 1.3125 19.128906 C 1.3125 9.289062 9.289062 1.3125 19.128906 1.3125 C 28.964844 1.3125 36.941406 9.289062 36.941406 19.128906 Z M 36.941406 19.128906 "/>
</g>
<g clip-path="url(#clip4)" clip-rule="nonzero">
<path style=" stroke:none;fill-rule:nonzero;fill:rgb(100%,75.689697%,2.749634%);fill-opacity:1;" d="M 19.128906 1.3125 L 19.128906 19.128906 L 26.253906 22.691406 L 18.375 36.941406 C 18.660156 36.941406 18.84375 36.941406 19.128906 36.941406 C 28.972656 36.941406 36.941406 28.972656 36.941406 19.128906 C 36.941406 9.28125 28.972656 1.3125 19.128906 1.3125 Z M 19.128906 1.3125 "/>
</g>
<g clip-path="url(#clip5)" clip-rule="nonzero">
<path style=" stroke:none;fill-rule:nonzero;fill:rgb(95.689392%,26.269531%,21.179199%);fill-opacity:1;" d="M 35.015625 11.109375 L 19.128906 11.109375 L 19.128906 22.691406 L 16.453125 21.800781 L 4.128906 9.5625 L 4.109375 9.5625 C 7.261719 4.597656 12.8125 1.3125 19.128906 1.3125 C 26.074219 1.3125 32.085938 5.304688 35.015625 11.109375 Z M 35.015625 11.109375 "/>
</g>
<path style=" stroke:none;fill-rule:nonzero;fill:rgb(86.669922%,17.248535%,0%);fill-opacity:1;" d="M 4.125 9.5625 L 12.003906 22.800781 L 16.453125 21.800781 Z M 4.125 9.5625 "/>
<g clip-path="url(#clip6)" clip-rule="nonzero">
<path style=" stroke:none;fill-rule:nonzero;fill:rgb(33.329773%,54.508972%,18.429565%);fill-opacity:1;" d="M 18.375 36.941406 L 26.332031 22.636719 L 22.691406 20.019531 Z M 18.375 36.941406 "/>
</g>
<path style=" stroke:none;fill-rule:nonzero;fill:rgb(97.648621%,65.879822%,14.509583%);fill-opacity:1;" d="M 35.039062 11.109375 L 19.128906 11.109375 L 17.71875 15.191406 Z M 35.039062 11.109375 "/>
<path style=" stroke:none;fill-rule:nonzero;fill:rgb(100%,100%,100%);fill-opacity:1;" d="M 27.144531 19.128906 C 27.144531 23.554688 23.554688 27.144531 19.128906 27.144531 C 14.699219 27.144531 11.109375 23.554688 11.109375 19.128906 C 11.109375 14.699219 14.699219 11.109375 19.128906 11.109375 C 23.554688 11.109375 27.144531 14.699219 27.144531 19.128906 Z M 27.144531 19.128906 "/>
<path style=" stroke:none;fill-rule:nonzero;fill:rgb(12.939453%,58.81958%,95.289612%);fill-opacity:1;" d="M 25.363281 19.128906 C 25.363281 22.570312 22.570312 25.363281 19.128906 25.363281 C 15.683594 25.363281 12.890625 22.570312 12.890625 19.128906 C 12.890625 15.683594 15.683594 12.890625 19.128906 12.890625 C 22.570312 12.890625 25.363281 15.683594 25.363281 19.128906 Z M 25.363281 19.128906 "/>
</g>
</svg>
