
<?xml version="1.0" encoding="UTF-8"?>
<svg xmlns="http://www.w3.org/2000/svg" xmlns:xlink="http://www.w3.org/1999/xlink" width="37.5pt" height="37.499999pt" viewBox="0 0 37.5 37.499999" version="1.2">
<g id="surface1">
<path style=" stroke:none;fill-rule:nonzero;fill:rgb(100%,100%,100%);fill-opacity:1;" d="M 18 0 C 8.074219 0 0 8.074219 0 18 C 0 27.925781 8.074219 36 18 36 C 27.925781 36 36 27.925781 36 18 C 36 8.074219 27.925781 0 18 0 Z M 12.523438 25.824219 L 9.390625 25.824219 L 9.390625 14.085938 L 12.523438 14.085938 Z M 10.957031 11.738281 C 10.089844 11.738281 9.390625 11.039062 9.390625 10.175781 C 9.390625 9.308594 10.089844 8.609375 10.957031 8.609375 C 11.820312 8.609375 12.523438 9.308594 12.523438 10.175781 C 12.523438 11.039062 11.820312 11.738281 10.957031 11.738281 Z M 27.390625 25.824219 L 24.261719 25.824219 L 24.261719 19.957031 C 24.261719 18.449219 23.027344 17.21875 21.523438 17.21875 C 20.015625 17.21875 18.78125 18.449219 18.78125 19.957031 L 18.78125 25.824219 L 15.652344 25.824219 L 15.652344 14.085938 L 18.78125 14.085938 L 18.78125 15.507812 C 19.695312 14.628906 20.9375 14.085938 22.304688 14.085938 C 25.113281 14.085938 27.390625 16.363281 27.390625 19.175781 Z M 27.390625 25.824219 "/>
</g>
</svg>
