<svg width="13" height="13" viewBox="0 0 13 13" fill="none" xmlns="http://www.w3.org/2000/svg">
<g clip-path="url(#clip0)">
<path d="M11.277 5.13818C11.277 8.63818 6.77698 11.6382 6.77698 11.6382C6.77698 11.6382 2.27698 8.63818 2.27698 5.13818C2.27698 3.94471 2.75108 2.80012 3.595 1.9562C4.43891 1.11229 5.5835 0.638184 6.77698 0.638184C7.97045 0.638184 9.11504 1.11229 9.95896 1.9562C10.8029 2.80012 11.277 3.94471 11.277 5.13818Z" stroke="#797A7A" stroke-linecap="round" stroke-linejoin="round"/>
<path d="M6.77698 6.63818C7.6054 6.63818 8.27698 5.96661 8.27698 5.13818C8.27698 4.30976 7.6054 3.63818 6.77698 3.63818C5.94855 3.63818 5.27698 4.30976 5.27698 5.13818C5.27698 5.96661 5.94855 6.63818 6.77698 6.63818Z" stroke="#797A7A" stroke-linecap="round" stroke-linejoin="round"/>
</g>
<defs>
<clipPath id="clip0">
<rect x="0.776978" y="0.138184" width="12" height="12" fill="white"/>
</clipPath>
</defs>
</svg>
