<?xml version="1.0" encoding="UTF-8"?>
<svg xmlns="http://www.w3.org/2000/svg" xmlns:xlink="http://www.w3.org/1999/xlink" width="37.5pt" height="37.499999pt" viewBox="0 0 37.5 37.499999" version="1.2">
<defs>
<clipPath id="clip1">
  <path d="M 27 3 L 35.9375 3 L 35.9375 36 L 27 36 Z M 27 3 "/>
</clipPath>
</defs>
<g id="surface1">
<g clip-path="url(#clip1)" clip-rule="nonzero">
<path style=" stroke:none;fill-rule:nonzero;fill:rgb(16.079712%,71.369934%,96.469116%);fill-opacity:1;" d="M 35.984375 8.847656 L 35.984375 29.921875 C 35.984375 30.960938 35.335938 31.882812 34.359375 32.226562 L 27.109375 35.613281 L 27.765625 26.742188 L 27.765625 12.027344 L 27.109375 3.160156 L 34.359375 6.542969 C 35.335938 6.886719 35.984375 7.808594 35.984375 8.847656 Z M 35.984375 8.847656 "/>
</g>
<path style=" stroke:none;fill-rule:nonzero;fill:rgb(0.779724%,46.669006%,74.119568%);fill-opacity:1;" d="M 7.214844 27.476562 L 27.765625 12.027344 L 27.765625 4.140625 C 27.765625 3.164062 26.546875 2.703125 25.894531 3.4375 L 3.644531 23.667969 C 2.90625 24.347656 2.945312 25.519531 3.730469 26.144531 C 3.730469 26.144531 4.820312 27.152344 5.214844 27.433594 C 5.820312 27.863281 6.613281 27.910156 7.214844 27.476562 Z M 7.214844 27.476562 "/>
<path style=" stroke:none;fill-rule:nonzero;fill:rgb(0.779724%,53.329468%,81.959534%);fill-opacity:1;" d="M 7.214844 11.296875 L 27.765625 26.742188 L 27.765625 34.628906 C 27.765625 35.609375 26.546875 36.066406 25.894531 35.332031 L 3.644531 15.101562 C 2.90625 14.425781 2.945312 13.25 3.730469 12.625 C 3.730469 12.625 4.820312 11.617188 5.214844 11.335938 C 5.820312 10.90625 6.613281 10.859375 7.214844 11.296875 Z M 7.214844 11.296875 "/>
</g>
</svg>
